<svg width="28" height="28" viewBox="0 0 28 28" fill="none" xmlns="http://www.w3.org/2000/svg">
  <path d="M10.498 9.039c0-2.423 1.965-4.388 4.389-4.388 2.423 0 4.388 1.965 4.388 4.388 0 2.424-1.965 4.389-4.388 4.389-2.424 0-4.389-1.965-4.389-4.389Z" stroke="#FF6B2C" stroke-width="1.7"/>
  <path d="M7.045 7.579 3.73 4.249M6.088 12.497H2.149M7.12 17.338l-2.947 3.142" stroke="#FF6B2C" stroke-width="1.7" stroke-linecap="round"/>
  <path d="M14.913 13.428v9.921c0 .74-.6 1.34-1.34 1.34h0c-.74 0-1.34-.6-1.34-1.34v-4.216c0-.74-.6-1.34-1.34-1.34h0c-.74 0-1.34.6-1.34 1.34v1.532c0 .74-.6 1.34-1.34 1.34h0c-.74 0-1.34-.6-1.34-1.34V13.74c0-2.056 1.667-3.723 3.723-3.723h5.322Z" stroke="#FF6B2C" stroke-width="1.7" stroke-linejoin="round"/>
  <path d="m16.313 11.717 6.584 11.05" stroke="#FF6B2C" stroke-width="1.7" stroke-linecap="round"/>
</svg>
